<svg width="19" height="20" viewBox="0 0 19 20" fill="none" xmlns="http://www.w3.org/2000/svg">
<path d="M15.3898 0.713796H3.60407C1.65206 0.713796 0.0683594 2.2975 0.0683594 4.24951V16.0352C0.0683594 17.9872 1.65206 19.5709 3.60407 19.5709H10.1353V12.2663H7.67997V9.41804H10.1353V7.31871C10.1353 4.8879 11.6331 3.56201 13.8061 3.56201C14.8373 3.56201 15.7335 3.63567 15.9914 3.6725V6.2138L14.4936 6.22607C13.3027 6.22607 13.0818 6.77853 13.0818 7.60107V9.41804H15.8931L15.5248 12.2663H13.0818V19.5709H15.3898C17.3418 19.5709 18.9255 17.9872 18.9255 16.0352V4.24951C18.9255 2.2975 17.3418 0.713796 15.3898 0.713796Z" fill="#147DFF"/>
</svg>
