<svg width="21" height="16" viewBox="0 0 21 16" fill="none" xmlns="http://www.w3.org/2000/svg">
<path d="M20.1726 2.1513C19.4605 2.45822 18.6871 2.6792 17.8891 2.76514C18.7116 2.27406 19.3378 1.50063 19.6324 0.579869C18.8712 1.03411 18.0119 1.36558 17.1157 1.53746C16.3913 0.76402 15.3601 0.285226 14.2183 0.285226C12.0208 0.285226 10.2529 2.06536 10.2529 4.25063C10.2529 4.55755 10.2898 4.86447 10.3511 5.15911C7.06097 4.98723 4.12681 3.41581 2.1748 1.00956C1.83105 1.59884 1.63463 2.27406 1.63463 3.01067C1.63463 4.38567 2.3344 5.60107 3.40248 6.31313C2.75181 6.28857 2.13797 6.10442 1.61007 5.80978C1.61007 5.82206 1.61007 5.84661 1.61007 5.85889C1.61007 7.78634 2.9728 9.38232 4.78976 9.75063C4.45829 9.83657 4.10226 9.88567 3.74623 9.88567C3.48842 9.88567 3.24289 9.86112 2.99735 9.82429C3.5007 11.3957 4.96164 12.5375 6.70494 12.5743C5.34222 13.6424 3.63574 14.2685 1.78195 14.2685C1.45047 14.2685 1.14355 14.2562 0.824358 14.2194C2.57994 15.3488 4.66699 15.9995 6.91364 15.9995C14.2061 15.9995 18.196 9.95933 18.196 4.71715C18.196 4.54527 18.196 4.3734 18.1837 4.20152C18.9572 3.63679 19.6324 2.93701 20.1726 2.1513Z" fill="#15C0E9"/>
</svg>
