<svg width="6" height="11" viewBox="0 0 6 11" fill="none" xmlns="http://www.w3.org/2000/svg">
<path d="M5.03474 0.0857971C5.1151 0.0857971 5.2055 0.125977 5.26576 0.186244L5.768 0.688477C5.82826 0.748744 5.86844 0.839146 5.86844 0.919503C5.86844 0.99986 5.82826 1.09026 5.768 1.15053L1.82045 5.09807L5.768 9.04562C5.82826 9.10589 5.86844 9.19629 5.86844 9.27665C5.86844 9.36705 5.82826 9.44741 5.768 9.50767L5.26576 10.0099C5.2055 10.0702 5.1151 10.1104 5.03474 10.1104C4.95438 10.1104 4.86398 10.0702 4.80371 10.0099L0.122908 5.3291C0.0626396 5.26883 0.0224612 5.17843 0.0224612 5.09807C0.0224612 5.01772 0.0626396 4.92732 0.122908 4.86705L4.80371 0.186244C4.86398 0.125977 4.95438 0.0857971 5.03474 0.0857971Z" fill="black"/>
</svg>
