<svg width="524" height="393" viewBox="0 0 524 393" fill="none" xmlns="http://www.w3.org/2000/svg">
<g opacity="0.06">
<path fill-rule="evenodd" clip-rule="evenodd" d="M331.647 230.494L73.3049 305.843L79.4131 326.785L344.627 249.431L493.264 55.0603L474.109 45.1851L466.794 53.036L466.603 54.0128L331.647 230.494Z" fill="#FFC000"/>
<path d="M261.778 229.056C261.778 186.888 295.962 152.704 338.13 152.704C380.298 152.704 414.481 186.888 414.481 229.056C414.481 271.224 380.298 305.407 338.13 305.407C295.962 305.407 261.778 271.224 261.778 229.056Z" fill="#F6C142"/>
<path d="M-0.000595093 316.315C-0.000595093 274.147 34.1833 239.963 76.3513 239.963C118.519 239.963 152.703 274.147 152.703 316.315C152.703 358.483 118.519 392.667 76.3513 392.667C34.1833 392.667 -0.000595093 358.483 -0.000595093 316.315Z" fill="#F6C142"/>
<path d="M414.482 54.5369C414.482 24.417 438.899 -0.000106812 469.019 -0.000106812C499.139 -0.000106812 523.556 24.417 523.556 54.5369C523.556 84.6569 499.139 109.074 469.019 109.074C438.899 109.074 414.482 84.6569 414.482 54.5369Z" fill="#F6C142"/>
</g>
</svg>
