<svg width="473" height="589" viewBox="0 0 473 589" fill="none" xmlns="http://www.w3.org/2000/svg">
<g opacity="0.06">
<path fill-rule="evenodd" clip-rule="evenodd" d="M140.909 162.173L399.251 86.8236L393.143 65.8813L127.929 143.235L-20.708 337.606L103.447 529.482L121.762 517.631L5.95313 338.654L140.909 162.173Z" fill="#FFC000"/>
<path d="M167.148 512.648C167.148 554.816 132.964 589 90.7962 589C48.6282 589 14.4443 554.816 14.4443 512.648C14.4443 470.48 48.6282 436.296 90.7962 436.296C132.964 436.296 167.148 470.48 167.148 512.648Z" fill="#F6C142"/>
<path d="M210.778 163.611C210.778 205.779 176.594 239.963 134.426 239.963C92.2581 239.963 58.0742 205.779 58.0742 163.611C58.0742 121.443 92.2581 87.2593 134.426 87.2593C176.594 87.2593 210.778 121.443 210.778 163.611Z" fill="#F6C142"/>
<path d="M472.556 76.3519C472.556 118.52 438.372 152.704 396.204 152.704C354.036 152.704 319.853 118.52 319.853 76.3519C319.853 34.1839 354.036 0 396.204 0C438.372 0 472.556 34.1839 472.556 76.3519Z" fill="#F6C142"/>
<path d="M58.0741 338.13C58.0741 368.25 33.657 392.667 3.53704 392.667C-26.5829 392.667 -51 368.25 -51 338.13C-51 308.01 -26.5829 283.593 3.53704 283.593C33.657 283.593 58.0741 308.01 58.0741 338.13Z" fill="#F6C142"/>
</g>
</svg>
