<svg width="541" height="506" viewBox="0 0 541 506" fill="none" xmlns="http://www.w3.org/2000/svg">
<path d="M428.784 32.1639C464.222 48.7519 478.925 104.925 496.267 153.558C513.609 202.191 533.59 243.284 538.868 287.016C543.769 330.748 534.344 377.873 504.938 405.771C475.909 434.046 427.276 443.471 386.56 458.551C345.844 473.631 313.422 494.366 276.476 502.283C239.153 510.2 197.306 505.676 168.654 483.81C139.625 461.944 123.414 423.113 108.711 386.921C94.385 350.729 81.19 317.553 56.685 269.674C32.18 222.172 -3.63505 160.721 0.511948 106.81C5.03595 52.8989 49.8989 6.9049 103.056 0.872897C156.59 -5.1591 218.795 28.7709 277.984 34.0489C337.173 39.3269 393.346 15.5759 428.784 32.1639Z" fill="#5DB5F9"/>
</svg>
