<svg width="541" height="506" viewBox="0 0 541 506" fill="none" xmlns="http://www.w3.org/2000/svg">
<path d="M112.216 32.1639C76.778 48.7519 62.075 104.925 44.733 153.558C27.391 202.191 7.41003 243.284 2.13202 287.016C-2.76898 330.748 6.65601 377.873 36.062 405.771C65.091 434.046 113.724 443.471 154.44 458.551C195.156 473.631 227.578 494.366 264.524 502.283C301.847 510.2 343.694 505.676 372.346 483.81C401.375 461.944 417.586 423.113 432.289 386.921C446.615 350.729 459.81 317.553 484.315 269.674C508.82 222.172 544.635 160.721 540.488 106.81C535.964 52.8989 491.101 6.9049 437.944 0.872897C384.41 -5.1591 322.205 28.7709 263.016 34.0489C203.827 39.3269 147.654 15.5759 112.216 32.1639Z" fill="#5DB5F9"/>
</svg>
