<svg width="64" height="65" viewBox="0 0 64 65" fill="none" xmlns="http://www.w3.org/2000/svg">
<path d="M17.4112 10.0176L16.2432 10.6928L17.4705 12.5028L17.7567 12.2944L17.9346 10.8577L17.4112 10.0176Z" fill="black"/>
<g opacity="0.05">
<path opacity="0.05" d="M19.8613 1.58447C19.626 1.94017 19.4065 2.3255 19.3389 2.59598L19.5241 2.46815C19.501 2.26715 19.6538 1.93368 19.8613 1.58447Z" fill="black"/>
<path opacity="0.05" d="M20.9168 6.42678L21.0455 3.71924C18.174 5.54125 13.9724 7.20394 13.9724 7.20394L13.7695 7.52536C13.7695 7.52536 17.9758 5.86267 20.8427 4.04066L20.7223 6.59074L20.9168 6.42678Z" fill="black"/>
</g>
<path d="M62.8007 40.0983C58.5814 57.0197 41.4413 67.3192 24.5162 63.099C7.59101 58.8788 -2.70192 41.7378 1.52011 24.8145C5.74214 7.89118 22.8776 -2.40917 39.7972 1.81008C56.7168 6.02933 67.0199 23.1722 62.8007 40.0983Z" fill="url(#paint0_linear_600_831)"/>
<path d="M46.0879 27.9533C46.7169 23.7498 43.5166 21.4906 39.1408 19.9872L40.5608 14.2933L37.0946 13.4291L35.7117 18.9683C34.8002 18.7414 33.8646 18.5274 32.9328 18.3144L34.3222 12.7335L30.8635 11.8711L29.4425 17.5631C28.6885 17.3918 27.9475 17.2213 27.2296 17.0426V17.025L22.4527 15.8282L21.5265 19.5334C21.5265 19.5334 24.0978 20.1225 24.0441 20.1595C25.4474 20.5097 25.7012 21.4387 25.6596 22.1751L24.0423 28.6592C24.1648 28.6898 24.2852 28.7285 24.4026 28.775C24.2868 28.7462 24.1636 28.7147 24.0321 28.6823L21.7654 37.7692C21.5941 38.1953 21.1587 38.8354 20.1769 38.5927C20.2111 38.6427 17.6573 37.9638 17.6573 37.9638L15.9502 41.9357L20.4557 43.0611C21.2949 43.2714 22.1174 43.4919 22.927 43.6984L21.4931 49.4525L24.9556 50.3168L26.3765 44.6191C27.3223 44.8757 28.2402 45.1129 29.1387 45.3361L27.7233 51.0078L31.1895 51.872L32.6234 46.1262C38.5341 47.2443 42.9784 46.7931 44.8504 41.4475C46.3575 37.1431 44.7754 34.6606 41.6658 33.0414C43.9241 32.5199 45.6331 31.0305 46.0879 27.9533ZM38.1691 39.0577C37.0983 43.3622 29.851 41.0353 27.502 40.4471L29.4055 32.8173C31.7545 33.4083 39.2927 34.5689 38.1691 39.0577ZM39.2408 27.8904C38.2636 31.8058 32.2316 29.8161 30.2753 29.3289L32.0009 22.4049C33.9582 22.8967 40.2588 23.8073 39.2408 27.8904Z" fill="white"/>
<g opacity="0.7">
<g opacity="0.1">
<path opacity="0.1" d="M53.1846 54.0371C53.1846 54.0371 54.4397 54.1834 54.8667 54.1834C55.2937 54.1834 56.5489 54.0371 56.5489 54.0371V53.4155H53.1846V54.0371Z" fill="url(#paint1_linear_600_831)"/>
</g>
<g opacity="0.1">
<path opacity="0.1" d="M53.8474 47.1227C53.9392 47.1734 54.0404 47.205 54.1447 47.2153C54.5755 47.2741 55.0142 47.2247 55.4212 47.0717C55.4593 47.1543 55.5151 47.2275 55.5845 47.2862C55.654 47.345 55.7354 47.3878 55.8232 47.4117C55.9989 47.4582 56.1806 47.4785 56.3623 47.4719C56.4022 47.4763 56.4426 47.4685 56.4781 47.4497C56.5587 47.395 56.5198 47.27 56.4725 47.1847L56.2382 46.7596C56.1759 46.6302 56.0919 46.5124 55.9899 46.4113C55.8482 46.2995 55.6795 46.227 55.5008 46.201C55.0848 46.1182 54.6553 46.1325 54.2457 46.2427C53.8094 46.3585 53.2472 46.7596 53.8474 47.1227Z" fill="url(#paint2_linear_600_831)"/>
</g>
</g>
<defs>
<linearGradient id="paint0_linear_600_831" x1="0.573242" y1="37.5499" x2="63.8792" y2="35.0714" gradientUnits="userSpaceOnUse">
<stop stop-color="#147DFF"/>
<stop offset="1" stop-color="#15C0E9"/>
</linearGradient>
<linearGradient id="paint1_linear_600_831" x1="53.1846" y1="53.799" x2="56.5489" y2="53.799" gradientUnits="userSpaceOnUse">
<stop stop-color="#808080" stop-opacity="0.25"/>
<stop offset="0.54" stop-color="#808080" stop-opacity="0.12"/>
<stop offset="1" stop-color="#808080" stop-opacity="0.1"/>
</linearGradient>
<linearGradient id="paint2_linear_600_831" x1="53.5862" y1="46.8077" x2="56.5253" y2="46.8077" gradientUnits="userSpaceOnUse">
<stop stop-color="#808080" stop-opacity="0.25"/>
<stop offset="0.54" stop-color="#808080" stop-opacity="0.12"/>
<stop offset="1" stop-color="#808080" stop-opacity="0.1"/>
</linearGradient>
</defs>
</svg>
