<svg width="6" height="11" viewBox="0 0 6 11" fill="none" xmlns="http://www.w3.org/2000/svg">
<path d="M0.965262 0.0855529C0.884905 0.0855529 0.794503 0.125732 0.734235 0.186L0.232003 0.688232C0.171735 0.7485 0.131557 0.838902 0.131557 0.919259C0.131557 0.999615 0.171735 1.09002 0.232003 1.15029L4.17955 5.09783L0.232003 9.04538C0.171735 9.10564 0.131557 9.19604 0.131557 9.2764C0.131557 9.3668 0.171735 9.44716 0.232003 9.50743L0.734235 10.0097C0.794503 10.0699 0.884905 10.1101 0.965262 10.1101C1.04562 10.1101 1.13602 10.0699 1.19629 10.0097L5.87709 5.32886C5.93736 5.26859 5.97754 5.17819 5.97754 5.09783C5.97754 5.01747 5.93736 4.92707 5.87709 4.8668L1.19629 0.186C1.13602 0.125732 1.04562 0.0855529 0.965262 0.0855529Z" fill="#434755"/>
</svg>
