<svg width="130" height="64" viewBox="0 0 130 64" fill="none" xmlns="http://www.w3.org/2000/svg">
<path d="M68.6023 36.1179C68.1938 35.7505 67.7388 35.4383 67.249 35.1895C66.743 34.9365 66.2194 34.6987 65.6831 34.4888L65.6553 43.4691C66.2305 43.3708 66.7885 43.1902 67.3122 42.9328C67.8137 42.7002 68.2702 42.3807 68.6605 41.9892C69.0422 41.6125 69.3464 41.1648 69.556 40.6713C69.7801 40.1374 69.8903 39.5628 69.8798 38.984C69.8947 38.4174 69.7741 37.8554 69.5282 37.3448C69.3008 36.8804 68.9865 36.4639 68.6023 36.1179Z" fill="url(#paint0_linear_600_795)"/>
<path d="M62.1673 21.0408C61.7142 21.2306 61.298 21.4986 60.9378 21.8326C60.5937 22.1644 60.314 22.5573 60.1132 22.9912C59.892 23.4659 59.7838 23.9854 59.797 24.509C59.7854 25.0975 59.8947 25.6821 60.1182 26.2266C60.3288 26.6984 60.6246 27.1272 60.991 27.4914C61.3665 27.8633 61.7923 28.1809 62.2558 28.435C62.739 28.7106 63.2373 28.9589 63.7483 29.1787L63.7205 20.6411C63.1872 20.7045 62.6649 20.8389 62.1673 21.0408Z" fill="url(#paint1_linear_600_795)"/>
<path d="M64.7595 10.9287C60.5809 10.9287 56.4961 12.1678 53.0216 14.4894C49.5472 16.8109 46.8392 20.1106 45.2401 23.9712C43.641 27.8318 43.2226 32.0798 44.0378 36.1782C44.853 40.2766 46.8652 44.0412 49.82 46.9959C52.7748 49.9507 56.5394 51.9629 60.6377 52.7781C64.7361 53.5933 68.9842 53.1749 72.8448 51.5758C76.7053 49.9767 80.005 47.2687 82.3266 43.7943C84.6481 40.3199 85.8872 36.2351 85.8872 32.0564C85.8872 26.453 83.6613 21.0791 79.6991 17.1169C75.7369 13.1547 70.363 10.9287 64.7595 10.9287ZM73.1074 40.7989C72.6919 41.6747 72.0932 42.4511 71.3518 43.0756C70.5868 43.7174 69.7141 44.2185 68.7741 44.5554C67.7694 44.9265 66.7254 45.1811 65.6626 45.3143V48.2968L63.7932 48.6914L63.7679 45.4509H63.563C62.7959 45.4402 62.03 45.3878 61.2686 45.2941C60.3957 45.1865 59.5383 44.9777 58.7137 44.6718C57.933 44.3806 57.2246 43.9241 56.6368 43.3336C56.3472 43.0279 56.1222 42.6669 55.9753 42.2723C55.8284 41.8776 55.7626 41.4574 55.7818 41.0367C55.7714 40.6891 55.8489 40.3446 56.0073 40.035C56.1656 39.7255 56.3995 39.4609 56.6874 39.2659C56.9749 39.0696 57.2954 38.9265 57.6335 38.8435C57.9909 38.7441 58.3604 38.6948 58.7314 38.6968C59.0962 38.6965 59.4606 38.7227 59.8216 38.7752V39.5341C59.8216 40.8242 60.1556 41.8108 60.8209 42.4482C61.4862 43.0857 62.4677 43.4601 63.7679 43.5537V33.9005C62.7662 33.5211 61.7982 33.1045 60.8639 32.6509C59.9695 32.2307 59.1356 31.6921 58.3848 31.0496C57.6787 30.4358 57.0936 29.6953 56.6596 28.8665C56.2099 27.9451 55.9878 26.9293 56.012 25.9043C55.9903 24.8755 56.204 23.8554 56.6368 22.9218C57.0322 22.0991 57.604 21.3736 58.3114 20.7969C59.0407 20.2086 59.8702 19.7569 60.7602 19.4638C61.7174 19.137 62.7101 18.9247 63.7173 18.8314V15.6668L65.7663 15.4138L65.741 18.7403C66.3633 18.7605 67.0894 18.8137 67.9191 18.9098C68.7259 18.9986 69.5182 19.1899 70.2767 19.479C70.9833 19.7447 71.6262 20.1557 72.1638 20.6856C72.42 20.9597 72.6191 21.282 72.7494 21.6338C72.8797 21.9856 72.9386 22.3598 72.9227 22.7346C72.9375 23.0892 72.8497 23.4406 72.6698 23.7465C72.4968 24.0238 72.2665 24.261 71.9944 24.4421C71.7072 24.6262 71.3906 24.7597 71.0584 24.8368C70.7125 24.9229 70.3575 24.9671 70.001 24.9683C69.6429 24.9679 69.2853 24.9417 68.9309 24.8899V24.1563C68.9309 23.1242 68.6375 22.3172 68.0405 21.7379C67.4078 21.1401 66.6053 20.753 65.7436 20.6299L65.7183 29.7898C66.7757 30.1743 67.785 30.5816 68.7539 31.0243C69.6727 31.4331 70.5356 31.9576 71.3215 32.5851C72.0486 33.1601 72.6511 33.877 73.0922 34.6923C73.5561 35.5904 73.7858 36.591 73.7601 37.6014C73.7868 38.7029 73.5637 39.7961 73.1074 40.7989Z" fill="url(#paint2_linear_600_795)"/>
<path d="M127.421 0.919922H2.09456C1.5401 0.921917 1.00888 1.14289 0.616578 1.53472C0.224277 1.92654 0.0026653 2.45749 0 3.01195L0 61.0979C0.00200321 61.6526 0.223403 62.1839 0.615847 62.5759C1.00829 62.9678 1.53989 63.1886 2.09456 63.1899H127.421C127.977 63.1899 128.509 62.9697 128.902 62.5775C129.296 62.1853 129.517 61.6532 129.518 61.0979V3.01195C129.516 2.45685 129.295 1.92513 128.902 1.53309C128.509 1.14105 127.976 0.920587 127.421 0.919922ZM123.24 47.1797C120.623 47.4285 118.155 48.5073 116.195 50.2585C114.236 52.0098 112.887 54.3418 112.347 56.9138H17.1764C16.6361 54.3414 15.2873 52.0091 13.3271 50.2578C11.3669 48.5065 8.89798 47.428 6.28114 47.1797V16.9352C8.89798 16.6869 11.3669 15.6084 13.3271 13.8571C15.2873 12.1058 16.6361 9.77351 17.1764 7.20106H112.347C112.889 9.77203 114.238 12.1027 116.197 13.8529C118.157 15.6031 120.624 16.6813 123.24 16.9301V47.1797Z" fill="url(#paint3_linear_600_795)"/>
<path d="M30.4805 25.8774C29.0296 25.8774 27.6113 26.3077 26.4049 27.1138C25.1985 27.9199 24.2582 29.0656 23.703 30.4061C23.1477 31.7466 23.0024 33.2216 23.2855 34.6446C23.5686 36.0677 24.2672 37.3748 25.2932 38.4008C26.3192 39.4267 27.6263 40.1254 29.0494 40.4085C30.4724 40.6916 31.9474 40.5463 33.2879 39.991C34.6284 39.4358 35.7741 38.4955 36.5802 37.2891C37.3863 36.0827 37.8166 34.6644 37.8166 33.2134C37.8166 31.2678 37.0437 29.4019 35.6679 28.0261C34.2921 26.6503 32.4262 25.8774 30.4805 25.8774Z" fill="url(#paint4_linear_600_795)"/>
<path d="M99.0362 25.8774C97.5853 25.8774 96.1669 26.3077 94.9605 27.1138C93.7541 27.9199 92.8139 29.0656 92.2586 30.4061C91.7034 31.7466 91.5581 33.2216 91.8412 34.6446C92.1242 36.0677 92.8229 37.3748 93.8489 38.4008C94.8748 39.4267 96.182 40.1254 97.605 40.4085C99.0281 40.6916 100.503 40.5463 101.844 39.991C103.184 39.4358 104.33 38.4955 105.136 37.2891C105.942 36.0827 106.372 34.6644 106.372 33.2134C106.372 31.2678 105.599 29.4019 104.224 28.0261C102.848 26.6503 100.982 25.8774 99.0362 25.8774Z" fill="url(#paint5_linear_600_795)"/>
<defs>
<linearGradient id="paint0_linear_600_795" x1="65.6553" y1="39.7031" x2="69.895" y2="39.625" gradientUnits="userSpaceOnUse">
<stop stop-color="#147DFF"/>
<stop offset="1" stop-color="#15C0E9"/>
</linearGradient>
<linearGradient id="paint1_linear_600_795" x1="59.7959" y1="25.5984" x2="63.7614" y2="25.5265" gradientUnits="userSpaceOnUse">
<stop stop-color="#147DFF"/>
<stop offset="1" stop-color="#15C0E9"/>
</linearGradient>
<linearGradient id="paint2_linear_600_795" x1="43.6318" y1="35.4641" x2="85.9764" y2="33.8061" gradientUnits="userSpaceOnUse">
<stop stop-color="#147DFF"/>
<stop offset="1" stop-color="#15C0E9"/>
</linearGradient>
<linearGradient id="paint3_linear_600_795" x1="1.56522e-07" y1="37.0767" x2="129.134" y2="26.5598" gradientUnits="userSpaceOnUse">
<stop stop-color="#147DFF"/>
<stop offset="1" stop-color="#15C0E9"/>
</linearGradient>
<linearGradient id="paint4_linear_600_795" x1="23.1445" y1="34.3967" x2="37.8475" y2="33.821" gradientUnits="userSpaceOnUse">
<stop stop-color="#147DFF"/>
<stop offset="1" stop-color="#15C0E9"/>
</linearGradient>
<linearGradient id="paint5_linear_600_795" x1="91.7002" y1="34.3967" x2="106.403" y2="33.821" gradientUnits="userSpaceOnUse">
<stop stop-color="#147DFF"/>
<stop offset="1" stop-color="#15C0E9"/>
</linearGradient>
</defs>
</svg>
