<svg width="89" height="62" viewBox="0 0 89 62" fill="none" xmlns="http://www.w3.org/2000/svg">
<path d="M42.2561 2.76801C46.7734 1.23176 53.5042 0 62.2696 0C79.5362 0 88.9565 4.78693 88.9565 7.247C88.9565 9.70707 79.5362 14.494 62.2696 14.494C60.1673 14.494 58.1866 14.4213 56.3206 14.2916C52.7923 9.22972 47.9239 5.24083 42.2561 2.76801ZM61.8178 38.6432C61.5457 40.2741 61.1508 41.8824 60.6364 43.4543C61.1767 43.4647 61.7188 43.4716 62.2626 43.4716C72.9461 43.4716 82.9763 41.624 88.9496 38.6016V34.2507C82.2327 37.0343 72.6316 38.6483 62.2626 38.6483L61.8178 38.6432ZM58.6557 48.243C57.8199 49.883 56.8488 51.4512 55.7525 52.9313C57.8131 53.0662 59.9848 53.1423 62.2678 53.1423C75.1387 53.1423 84.639 50.8086 88.9548 48.3104V43.9128C82.2379 46.6963 72.6368 48.3104 62.2678 48.3104C61.0528 48.3104 59.8487 48.2879 58.6557 48.243ZM61.9916 28.9828C62.1738 30.3855 62.2667 31.7983 62.2696 33.2127C62.2696 33.4151 62.2574 33.6158 62.2539 33.8164H62.2696C72.953 33.8164 82.9832 31.9688 88.9565 28.9465V24.5869C82.2396 27.3704 72.6386 28.9845 62.2696 28.9845L61.9916 28.9828ZM59.1856 19.2636C59.9183 20.8392 60.5248 22.4699 60.9995 24.1405C61.4217 24.1405 61.8439 24.1544 62.2696 24.1544C72.953 24.1544 82.9832 22.3067 88.9565 19.2844V13.9906C83.0649 17.5077 72.6247 19.3224 62.2696 19.3224C61.241 19.3224 60.2107 19.3 59.1856 19.2636ZM57.8217 33.2127C57.8217 38.9063 56.1261 44.472 52.9494 49.206C49.7726 53.9401 45.2574 57.6298 39.9746 59.8087C34.6918 61.9875 28.8788 62.5576 23.2706 61.4468C17.6625 60.3361 12.5111 57.5943 8.46781 53.5684C4.42455 49.5424 1.67106 44.413 0.555527 38.8288C-0.560005 33.2446 0.0125267 27.4564 2.20072 22.1962C4.38892 16.9361 8.09449 12.4401 12.8489 9.27689C17.6032 6.1137 23.1929 4.42536 28.9109 4.42536C36.5785 4.42536 43.9321 7.4583 49.3539 12.857C54.7758 18.2556 57.8217 25.5778 57.8217 33.2127ZM37.6571 37.3405C37.7857 34.5725 36.394 32.8909 34.9363 32.019C34.3935 31.6849 33.803 31.4347 33.185 31.2768C31.9734 30.9711 30.7385 30.7663 29.4929 30.6644C26.9997 30.4066 25.6393 29.9551 25.6393 28.7614C25.6393 27.3774 26.6105 26.8912 28.9109 26.8912C30.6917 26.8912 31.5344 27.5036 32.1807 28.7614C32.6672 29.6644 33.0877 29.7994 33.9633 29.4067L36.1994 28.4032C37.2036 27.9846 37.4312 27.5002 36.9448 26.5971C35.8432 24.2426 33.9911 22.8569 31.3746 22.4053V21.0819C31.3746 20.2169 31.0827 19.921 30.1757 19.921H27.7138C26.8451 19.921 26.515 20.2117 26.515 21.0819V22.4053C22.4998 23.0541 20.328 25.3757 20.328 28.7631C20.328 30.8581 21.1706 32.5034 22.1749 33.3736C22.7583 33.8836 23.4416 34.2676 24.1816 34.5015C25.8339 35.1468 26.7738 35.242 28.5877 35.4686C31.1452 35.7264 32.4101 36.145 32.4101 37.4356C32.4101 38.8196 31.18 39.5012 28.718 39.5012C26.8711 39.5012 25.674 38.8559 25.1546 37.5342C24.7341 36.6 24.2858 36.4045 23.3407 36.7592L21.1376 37.5342C20.2643 37.856 19.9747 38.4361 20.2689 39.2746C21.2714 41.9198 23.3441 43.4993 26.5236 43.9837V45.3054C26.5236 46.2085 26.8468 46.4991 27.7225 46.4991H30.1844C31.0914 46.4991 31.3832 46.2085 31.3832 45.3054V43.9214C35.3898 43.1775 37.6571 40.7901 37.6571 37.3405Z" fill="url(#paint0_linear_600_791)"/>
<defs>
<linearGradient id="paint0_linear_600_791" x1="1.07503e-07" y1="36" x2="89" y2="31" gradientUnits="userSpaceOnUse">
<stop stop-color="#147DFF"/>
<stop offset="1" stop-color="#15C0E9"/>
</linearGradient>
</defs>
</svg>
