<svg width="80" height="66" viewBox="0 0 80 66" fill="none" xmlns="http://www.w3.org/2000/svg">
<path fill-rule="evenodd" clip-rule="evenodd" d="M21.5735 18.4014H28.1364C28.0586 18.5883 27.99 18.7814 27.9309 18.9776L25.3736 27.5154C25.1244 28.3487 25.0636 29.1476 25.1493 29.9154L25.1571 29.9949L24.0669 31.1754C23.5856 31.6115 23.1823 32.0678 22.8568 32.5319C22.701 32.7531 22.5624 32.9773 22.4378 33.2063H21.5735C21.2869 33.2063 21.0455 32.9446 21.0455 32.6253V18.9823C21.0455 18.663 21.2822 18.4014 21.5735 18.4014ZM38.0401 57.7357C38.0354 57.6734 38.0354 57.6127 38.0417 57.5519C36.2833 57.6189 34.5063 57.5286 32.9224 57.3495C30.8028 57.1081 28.8934 56.6237 27.4652 55.8855C26.3703 55.3186 25.534 54.5913 25.0621 53.7004C24.5606 52.7488 24.4781 51.6617 24.9297 50.4438C25.2334 49.6215 25.791 48.7369 26.6398 47.7915C26.6927 47.195 26.769 46.5892 26.8671 45.9709C26.9839 45.2467 27.135 44.5272 27.3204 43.8154L27.3359 43.6955C27.6054 42.3452 27.9589 41.104 28.3233 39.8284L28.3934 39.5824L26.5198 38.8987C25.9872 38.7211 25.5464 38.4221 25.2209 38.0374L25.1711 37.9704C24.8908 37.6169 24.7039 37.2011 24.6291 36.7494C24.5528 36.2946 24.5871 35.7994 24.749 35.301C24.9686 34.6157 25.4312 33.9118 26.1694 33.2748L28.4837 30.7689C28.0975 30.0758 27.9433 29.294 28.2205 28.3642L30.7778 19.8264C31.0037 19.0664 31.5223 18.4652 32.1748 18.1148C32.4676 17.9575 32.7869 17.8501 33.1186 17.8002L31.6204 16.5309C31.2155 16.1898 31.1641 15.5809 31.5067 15.176L31.6625 15.0296C44.6265 5.23337 56.0735 4.89541 64.3606 9.2671C69.2026 11.8228 72.9513 15.9921 75.2828 20.8216C77.5473 25.5157 78.4818 30.8452 77.7934 35.938C78.4164 36.318 78.9147 36.8569 79.2511 37.4814C79.7308 38.3738 79.8834 39.4469 79.5922 40.4888L79.547 40.6383C79.2184 41.6693 78.5005 42.4854 77.6049 42.9682C76.9493 43.3217 76.197 43.4977 75.4308 43.4526C72.59 48.9004 67.315 53.4123 59.1339 55.5771C59.1713 56.1097 59.2226 56.6346 59.2849 57.1532C59.5809 59.575 60.1509 61.8473 60.9545 63.9825C61.143 64.4793 60.8906 65.0338 60.3938 65.2207C59.897 65.4091 59.341 65.1568 59.1541 64.66C58.2944 62.3768 57.687 59.9566 57.3724 57.3868C57.0594 54.8249 57.0345 52.1025 57.3335 49.201C57.3598 48.9474 57.4855 48.7145 57.6831 48.5534C57.8807 48.3922 58.1341 48.316 58.3879 48.3413C58.9158 48.3958 59.3005 48.8677 59.2476 49.3957C59.0981 50.8456 59.0358 52.2489 59.0513 53.6101C66.1828 51.6228 70.8691 47.7059 73.4887 42.9791L58.3365 38.4439C57.6777 40.1134 56.4535 41.4341 54.9569 42.2393C53.2904 43.138 51.2767 43.4043 49.3299 42.8218L43.3572 41.0323L43.3369 41.0292L43.2388 40.9981L43.2185 40.9918L34.7337 38.4517C33.3149 38.028 32.9022 36.8756 32.4661 35.6545C32.2403 35.0207 32.002 34.3588 31.6111 33.9569C31.337 33.675 30.985 33.3714 30.6268 33.063C30.3231 32.8029 30.0147 32.5366 29.7219 32.2609L27.4621 34.7014C26.9839 35.1032 26.6989 35.5144 26.579 35.8881C26.5152 36.0875 26.4996 36.2744 26.5261 36.4333C26.5463 36.5578 26.5946 36.6715 26.6631 36.765L26.6896 36.7946C26.7908 36.9145 26.9388 37.0111 27.1226 37.0749C28.7485 37.606 30.485 38.2975 32.1094 38.8893L31.4538 40.6975L30.2078 40.2427L30.1767 40.3548C29.8574 41.4777 29.5444 42.5742 29.2983 43.722C29.7889 44.1596 30.2904 44.4882 30.8059 44.7001C31.4117 44.9492 32.0565 45.0396 32.7308 44.9555C33.2588 44.8901 33.7401 45.267 33.8039 45.7949C33.8678 46.3229 33.4924 46.8041 32.9645 46.868C31.9599 46.9941 30.9959 46.8571 30.0739 46.4786C29.6534 46.3042 29.2438 46.0784 28.8451 45.8058L28.7641 46.2699C28.6597 46.9178 28.5834 47.586 28.5336 48.2681C28.5159 48.5039 28.4123 48.7251 28.2423 48.8895C27.4652 49.7165 26.9762 50.4563 26.7363 51.1057C26.4902 51.7723 26.5183 52.3377 26.7644 52.8033C27.04 53.3266 27.5945 53.7876 28.3483 54.1754C29.5584 54.8015 31.2373 55.2205 33.1342 55.4369C34.9471 55.641 37.0325 55.7251 39.0197 55.5678C40.6348 55.4401 42.1766 55.1535 43.4288 54.6489C44.6483 54.1583 45.4971 52.9902 46.2197 51.995L46.7835 51.2319C47.6852 50.0202 49.2536 47.9099 50.6397 47.3804C51.1365 47.1919 51.6925 47.4411 51.8809 47.9379C52.0709 48.4363 51.8218 48.9923 51.3234 49.1823C50.4575 49.5125 49.1056 51.3331 48.3285 52.3766L47.7787 53.1242C46.905 54.3249 45.8817 55.7328 44.1437 56.4337C42.8977 56.9352 41.4462 57.2482 39.9308 57.4149C39.9464 57.4694 39.9557 57.5254 39.9604 57.5846C40.0321 58.491 40.0834 60.2836 40.0336 61.9392C39.9962 63.1727 39.8997 64.3376 39.7143 65.0338C39.6817 65.156 39.6254 65.2706 39.5485 65.371C39.4715 65.4714 39.3756 65.5557 39.2661 65.619C39.1567 65.6824 39.0358 65.7235 38.9104 65.7402C38.785 65.7568 38.6576 65.7486 38.5354 65.7159C38.023 65.5789 37.7177 65.0509 37.8548 64.537C38.0012 63.9841 38.0806 62.9749 38.1133 61.8862C38.16 60.3304 38.1102 58.6141 38.0401 57.7357ZM44.9551 35.354C45.2632 35.4471 45.5219 35.6585 45.6746 35.9419C45.8272 36.2253 45.8614 36.5577 45.7696 36.8662C45.6769 37.1743 45.4659 37.4331 45.1827 37.5858C44.8995 37.7385 44.5672 37.7726 44.2589 37.6807C43.6157 37.4876 43.2513 36.8117 43.4428 36.17C43.6359 35.5268 44.3119 35.1639 44.9551 35.354ZM39.4402 33.7046C39.5931 33.7501 39.7355 33.8252 39.8592 33.9258C39.9829 34.0264 40.0856 34.1505 40.1613 34.2908C40.2369 34.4312 40.2842 34.5851 40.3002 34.7438C40.3162 34.9024 40.3008 35.0627 40.2548 35.2153C40.0632 35.857 39.3857 36.2214 38.7441 36.0299C38.1024 35.8368 37.7364 35.1624 37.9295 34.5192C37.975 34.3663 38.0501 34.2239 38.1507 34.1002C38.2513 33.9765 38.3754 33.8738 38.5157 33.7982C38.6561 33.7225 38.81 33.6753 38.9686 33.6592C39.1273 33.6432 39.2876 33.6586 39.4402 33.7046ZM30.0287 29.09L30.0256 29.118V29.1243L30.024 29.1445V29.2551L30.0256 29.2831L30.0287 29.294V29.3096L30.0318 29.3361V29.3376L30.0365 29.3657L30.0381 29.3781L30.0412 29.3921L30.0458 29.4202V29.4217L30.0521 29.4482L30.0567 29.4638L30.0583 29.4747L30.0739 29.5307L30.0801 29.5494L30.0817 29.5572L30.0926 29.5853L30.0941 29.5915L30.1019 29.6133L30.1097 29.6335L30.1128 29.6413L30.1222 29.6694L30.1268 29.6771L30.1346 29.6958L30.1455 29.7192L30.1471 29.7239L30.1595 29.7519L30.1642 29.7612L30.1736 29.7799L30.186 29.8033V29.8064L30.2016 29.8344L30.2078 29.8453L30.2156 29.8625L30.2312 29.889L30.2468 29.917L30.2561 29.931L30.2639 29.945L30.2795 29.9715L30.2826 29.9746L30.2981 29.9995L30.309 30.0167L30.3153 30.0276L30.3371 30.0587L30.3527 30.0821L30.3667 30.1023L30.3729 30.1101L30.3916 30.1381L30.3963 30.1444L30.4118 30.1646L30.429 30.1864L30.4321 30.1926L30.4757 30.2472L30.4944 30.2705L30.4975 30.2752L30.5193 30.3017L30.5286 30.3126L30.5411 30.3297L30.5645 30.3562V30.3577L30.5878 30.3842L30.6003 30.3982L30.6112 30.4122L30.6361 30.4403L30.7093 30.5213L30.7124 30.5244L30.7358 30.5493L30.7514 30.5664L30.7607 30.5758L30.7856 30.6038L30.7919 30.6085L30.8121 30.6303L30.8323 30.6505L30.8386 30.6583L30.8666 30.6848L30.8744 30.6926L30.8931 30.7128L30.9164 30.7346L30.9196 30.7393L30.9476 30.7673L30.9585 30.7767L30.9756 30.7938L31.0005 30.8187L31.0037 30.8203L31.0317 30.8483C31.2965 31.1037 31.5908 31.3545 31.8774 31.6021C32.2683 31.937 32.6514 32.2671 32.9909 32.616C33.6778 33.3246 33.9861 34.1843 34.2805 35.0066C34.5484 35.7558 34.8022 36.4644 35.2835 36.6077L43.8041 39.1587L43.8119 39.1603L43.8197 39.1634L43.8291 39.165L43.8384 39.1681C45.2775 39.5995 46.7664 39.4017 48.003 38.7351C49.2349 38.0717 50.2161 36.9425 50.649 35.5081L53.3231 26.5779C53.3963 26.3256 53.3621 26.0624 53.2453 25.8443C53.1316 25.6356 52.94 25.4643 52.7017 25.3864L52.6892 25.3833L52.6783 25.3802L52.6534 25.3724L52.6301 25.3646L36.4188 20.5117L34.4207 19.9136L33.8195 19.733C33.5742 19.6614 33.3107 19.6894 33.0859 19.8109C32.8695 19.9277 32.695 20.127 32.6218 20.3762L30.0645 28.914C30.0474 28.9732 30.0365 29.0324 30.0287 29.09ZM60.6882 30.677L75.9369 35.2434C76.4665 30.6536 75.5881 25.8801 73.5494 21.658C71.3893 17.1819 67.9271 13.3257 63.4635 10.9694C55.9879 7.02596 45.6466 7.28761 33.7915 15.8503L37.0325 18.6023C37.0636 18.6366 37.0932 18.6739 37.1181 18.7113L53.2032 23.5284L53.2281 23.5347L53.2624 23.5456L59.2709 25.3428C60.031 25.5702 60.6321 26.0904 60.9841 26.7414C61.333 27.3908 61.4373 28.1758 61.2099 28.9358L60.6882 30.677ZM56.779 37.0251L56.7853 37.0017L56.7915 36.9783L58.567 31.0492L58.5841 30.9947L59.3659 28.386C59.4407 28.1337 59.4049 27.8721 59.2881 27.6525C59.1678 27.429 58.964 27.2621 58.7212 27.1884L55.2824 26.1589C55.2995 26.4782 55.2621 26.8053 55.1671 27.1276L52.4759 36.1155C51.8809 38.0312 50.5649 39.5419 48.9141 40.4296C48.8097 40.4872 48.7038 40.5417 48.5963 40.5931L49.8797 40.9763C51.3203 41.4077 52.8107 41.2099 54.0458 40.5448C55.2792 39.8798 56.2635 38.7445 56.6949 37.3038L56.779 37.0251ZM60.1369 32.521L58.9127 36.6077L74.3499 41.2301C77.9445 42.2175 78.7652 38.5467 76.4275 37.4534C76.1768 37.3366 75.912 37.2353 75.6301 37.1606L60.1369 32.521ZM0.00155745 55.5833L2.5895e-08 1.74318C-3.72005e-05 1.60201 0.0400635 1.46375 0.115625 1.34451C0.191186 1.22527 0.299093 1.12997 0.42676 1.06973C0.554427 1.00948 0.696591 0.986782 0.83667 1.00427C0.976749 1.02176 1.10897 1.07871 1.21791 1.16849C5.96494 4.52318 12.2055 6.50423 18.8931 7.41999C25.2505 8.29215 32.002 8.20182 38.2722 7.41532C37.1633 7.96353 36.0419 8.57404 34.9097 9.25152C29.563 9.6876 23.9952 9.61596 18.6969 8.8902C17.4167 8.71577 16.1505 8.5024 14.9077 8.24854V45.8307C17.8201 45.0349 20.8897 44.6938 24.0482 44.8698C24.0108 45.0738 23.975 45.2856 23.9392 45.5052L23.813 46.34C20.354 46.1656 17.0086 46.6484 13.8767 47.6888C9.07823 49.2836 4.76884 52.1959 1.29578 56.077C1.02323 56.3807 0.554443 56.4072 0.250745 56.1347C0.173307 56.065 0.111173 55.9801 0.068279 55.8852C0.0253847 55.7902 0.00266459 55.6875 0.00155745 55.5833ZM13.4188 46.2808V7.92148C9.01749 6.89047 4.93548 5.32681 1.4889 3.13552V53.7222C4.8872 50.3317 8.94741 47.7666 13.4125 46.284L13.4188 46.2808ZM4.91523 10.5894L9.27135 13.8755C9.58284 14.1091 9.96908 14.2259 9.96908 14.6402V36.6061C9.96908 37.0204 9.57349 37.1263 9.27135 37.3708L4.91523 40.8922C4.61465 41.1336 4.21906 40.5464 4.21906 40.1259V11.354C4.21906 10.9335 4.60686 10.3573 4.91523 10.5894ZM21.6871 37.1543H18.6844C18.3278 37.1543 17.9976 37.0048 17.7546 36.7619C17.4961 36.508 17.3341 36.1451 17.3341 35.7464V16.0357C17.3341 15.637 17.4946 15.2788 17.75 15.0218C17.9929 14.7804 18.3231 14.6293 18.6844 14.6293H28.4869C28.3569 15.0453 28.2969 15.4801 28.3093 15.9157H18.6844C18.6237 15.9157 18.5707 15.9375 18.5365 15.9718C18.5162 15.9905 18.5053 16.0154 18.5053 16.0357V35.7464C18.5053 35.7682 18.5162 35.79 18.5349 35.8087C18.5707 35.8477 18.6237 35.8695 18.6844 35.8695H21.6311C21.6015 36.2962 21.6217 36.7292 21.6871 37.1543Z" fill="url(#paint0_linear_600_846)"/>
<defs>
<linearGradient id="paint0_linear_600_846" x1="9.6365e-08" y1="38.5953" x2="79.8451" y2="34.7452" gradientUnits="userSpaceOnUse">
<stop stop-color="#147DFF"/>
<stop offset="1" stop-color="#15C0E9"/>
</linearGradient>
</defs>
</svg>
