<svg width="81" height="65" viewBox="0 0 81 65" fill="none" xmlns="http://www.w3.org/2000/svg">
<path d="M51.0048 63.7849L49.3004 63.0673L48.1311 54.5229H32.5608L31.2934 63.0324L29.7685 63.7948C29.6956 63.8313 29.6371 63.8913 29.6025 63.9652C29.5679 64.0391 29.5593 64.1225 29.578 64.2019C29.5968 64.2813 29.6418 64.352 29.7058 64.4026C29.7697 64.4532 29.8489 64.4808 29.9305 64.4808H50.8643C50.9479 64.4808 51.029 64.4518 51.0936 64.3989C51.1583 64.346 51.2027 64.2723 51.2193 64.1903C51.2358 64.1084 51.2235 64.0232 51.1844 63.9494C51.1453 63.8755 51.0819 63.8174 51.0048 63.7849Z" fill="#16BFEA"/>
<path d="M78.6787 55.6598H2.1926C1.7913 55.6589 1.40674 55.4988 1.1233 55.2147C0.83985 54.9307 0.680667 54.5457 0.680664 54.1444V43.3589H80.1907V54.1444C80.1907 54.5457 80.0315 54.9307 79.748 55.2147C79.4646 55.4988 79.08 55.6589 78.6787 55.6598Z" fill="#1581FE"/>
<path d="M80.2682 48.4562H0.608398V2.30716C0.608959 1.82285 0.801607 1.35854 1.14407 1.01609C1.48654 0.673637 1.95086 0.481009 2.43517 0.480469H78.4414C78.9257 0.481014 79.39 0.673643 79.7325 1.01609C80.075 1.35855 80.2676 1.82285 80.2682 2.30716V48.4562Z" fill="white"/>
<path d="M80.2682 48.4562H0.608398V2.30716C0.608959 1.82285 0.801607 1.35854 1.14407 1.01609C1.48654 0.673637 1.95086 0.481009 2.43517 0.480469H78.4414C78.9257 0.481014 79.39 0.673643 79.7325 1.01609C80.075 1.35855 80.2676 1.82285 80.2682 2.30716V48.4562Z" fill="#1581FF" fill-opacity="0.2"/>
<path d="M75.5056 45.1059H5.36142C4.98805 45.1055 4.63009 44.957 4.36607 44.693C4.10206 44.429 3.95354 44.0711 3.95312 43.6977V5.23744C3.95354 4.86406 4.10205 4.5061 4.36606 4.24207C4.63008 3.97805 4.98804 3.82953 5.36142 3.8291H75.5056C75.879 3.82953 76.237 3.97805 76.501 4.24207C76.765 4.5061 76.9135 4.86406 76.9139 5.23744V43.6977C76.9135 44.0711 76.765 44.429 76.501 44.693C76.237 44.957 75.879 45.1055 75.5056 45.1059Z" fill="url(#paint0_linear_600_805)"/>
<path d="M68.9213 40.3292H11.9566C11.9093 40.3292 11.864 40.3104 11.8305 40.2769C11.7971 40.2435 11.7783 40.1982 11.7783 40.1509V12.8477C11.7783 12.8004 11.7971 12.7551 11.8305 12.7217C11.864 12.6882 11.9093 12.6694 11.9566 12.6694C12.0039 12.6694 12.0492 12.6882 12.0826 12.7217C12.1161 12.7551 12.1349 12.8004 12.1349 12.8477V39.9726H68.9213C68.9686 39.9726 69.0139 39.9914 69.0474 40.0248C69.0808 40.0583 69.0996 40.1036 69.0996 40.1509C69.0996 40.1982 69.0808 40.2435 69.0474 40.2769C69.0139 40.3104 68.9686 40.3292 68.9213 40.3292Z" fill="white"/>
<path d="M24.1283 38.3671H18.9472C18.8069 38.3669 18.6724 38.3111 18.5732 38.2119C18.4739 38.1127 18.4181 37.9782 18.418 37.8379V30.6957C18.4181 30.5554 18.4739 30.4209 18.5732 30.3217C18.6724 30.2225 18.8069 30.1667 18.9472 30.1665H24.1283C24.2686 30.1667 24.4031 30.2225 24.5024 30.3217C24.6016 30.4209 24.6574 30.5554 24.6575 30.6957V37.8379C24.6574 37.9782 24.6016 38.1127 24.5024 38.2119C24.4031 38.3111 24.2686 38.3669 24.1283 38.3671Z" fill="white"/>
<path d="M33.5766 38.3666H28.3954C28.2551 38.3664 28.1206 38.3106 28.0214 38.2114C27.9222 38.1122 27.8664 37.9777 27.8662 37.8374V23.9208C27.8664 23.7805 27.9222 23.646 28.0214 23.5468C28.1206 23.4476 28.2551 23.3918 28.3954 23.3916H33.5766C33.7169 23.3918 33.8514 23.4476 33.9506 23.5468C34.0498 23.646 34.1056 23.7805 34.1058 23.9208V37.8374C34.1056 37.9777 34.0498 38.1122 33.9506 38.2114C33.8514 38.3106 33.7169 38.3664 33.5766 38.3666Z" fill="white"/>
<path d="M43.0229 38.3671H37.8417C37.7014 38.3669 37.5669 38.3111 37.4677 38.2119C37.3685 38.1127 37.3127 37.9782 37.3125 37.8379V30.6957C37.3127 30.5554 37.3685 30.4209 37.4677 30.3217C37.5669 30.2225 37.7014 30.1667 37.8417 30.1665H43.0229C43.1632 30.1667 43.2977 30.2225 43.3969 30.3217C43.4961 30.4209 43.5519 30.5554 43.5521 30.6957V37.8379C43.5519 37.9782 43.4961 38.1127 43.3969 38.2119C43.2977 38.3111 43.1632 38.3669 43.0229 38.3671Z" fill="white"/>
<path d="M52.4731 38.366H47.2919C47.1548 38.369 47.0221 38.3174 46.9229 38.2228C46.8237 38.1281 46.7661 37.9979 46.7627 37.8608V21.2221C46.7661 21.085 46.8237 20.9549 46.9229 20.8602C47.0221 20.7655 47.1548 20.714 47.2919 20.7169H52.4731C52.6102 20.714 52.7429 20.7655 52.842 20.8602C52.9412 20.9549 52.9989 21.085 53.0023 21.2221V37.8608C52.9989 37.9979 52.9412 38.1281 52.842 38.2228C52.7429 38.3174 52.6102 38.369 52.4731 38.366Z" fill="white"/>
<path d="M61.9213 38.3658H56.7401C56.5998 38.3656 56.4653 38.3098 56.3661 38.2106C56.2669 38.1114 56.2111 37.9769 56.2109 37.8366V16.4325C56.2111 16.2922 56.2669 16.1577 56.3661 16.0585C56.4653 15.9593 56.5998 15.9035 56.7401 15.9033H61.9213C62.0616 15.9035 62.1961 15.9593 62.2953 16.0585C62.3945 16.1577 62.4503 16.2922 62.4505 16.4325V37.8366C62.4503 37.9769 62.3945 38.1114 62.2953 38.2106C62.1961 38.3098 62.0616 38.3656 61.9213 38.3658Z" fill="white"/>
<path d="M21.5364 28.0275C22.1272 28.0275 22.6061 27.5486 22.6061 26.9578C22.6061 26.3671 22.1272 25.8882 21.5364 25.8882C20.9457 25.8882 20.4668 26.3671 20.4668 26.9578C20.4668 27.5486 20.9457 28.0275 21.5364 28.0275Z" fill="white"/>
<path d="M30.9857 21.0739C31.5764 21.0739 32.0553 20.595 32.0553 20.0042C32.0553 19.4135 31.5764 18.9346 30.9857 18.9346C30.3949 18.9346 29.916 19.4135 29.916 20.0042C29.916 20.595 30.3949 21.0739 30.9857 21.0739Z" fill="white"/>
<path d="M40.431 28.0275C41.0217 28.0275 41.5006 27.5486 41.5006 26.9578C41.5006 26.3671 41.0217 25.8882 40.431 25.8882C39.8402 25.8882 39.3613 26.3671 39.3613 26.9578C39.3613 27.5486 39.8402 28.0275 40.431 28.0275Z" fill="white"/>
<path d="M49.8812 17.6871C50.4719 17.6871 50.9508 17.2082 50.9508 16.6175C50.9508 16.0267 50.4719 15.5479 49.8812 15.5479C49.2904 15.5479 48.8115 16.0267 48.8115 16.6175C48.8115 17.2082 49.2904 17.6871 49.8812 17.6871Z" fill="white"/>
<path d="M59.3323 13.7643C59.9231 13.7643 60.402 13.2854 60.402 12.6946C60.402 12.1039 59.9231 11.625 59.3323 11.625C58.7416 11.625 58.2627 12.1039 58.2627 12.6946C58.2627 13.2854 58.7416 13.7643 59.3323 13.7643Z" fill="white"/>
<path d="M40.4571 27.1968L30.9861 20.1029L21.6446 27.0998L21.4307 26.8146L30.9861 19.6574L40.4122 26.7176L49.7788 16.4672L49.8165 16.4519L59.265 12.645L59.3983 12.9757L49.9874 16.7674L40.4571 27.1968Z" fill="white"/>
<defs>
<linearGradient id="paint0_linear_600_805" x1="3.95313" y1="27.7963" x2="76.8309" y2="22.7523" gradientUnits="userSpaceOnUse">
<stop stop-color="#147DFF"/>
<stop offset="1" stop-color="#15C0E9"/>
</linearGradient>
</defs>
</svg>
