<svg width="70" height="66" viewBox="0 0 70 66" fill="none" xmlns="http://www.w3.org/2000/svg">
<path fill-rule="evenodd" clip-rule="evenodd" d="M35.5971 13.0639L53.3102 22.4531C53.8007 22.7371 54.1105 23.2711 54.1105 23.839V42.6283C54.1132 42.9394 54.0222 43.2329 53.8646 43.4816C53.711 43.7275 53.4882 43.93 53.2232 44.0632L35.5849 53.4102C35.3386 53.5515 35.059 53.6242 34.7751 53.6208C34.4911 53.6181 34.2152 53.542 33.9788 53.4034L16.2657 44.0142C16.0144 43.8689 15.8173 43.665 15.6815 43.43L15.6543 43.377C15.5306 43.1446 15.4654 42.8865 15.4654 42.6283V23.839C15.4635 23.5371 15.5484 23.2409 15.71 22.9857C15.8673 22.7375 16.0889 22.5365 16.3513 22.4042L33.991 13.0558C34.2438 12.9117 34.5237 12.8438 34.8009 12.8451C35.0849 12.8492 35.3607 12.924 35.5971 13.0639ZM51.8549 53.4523C51.2322 53.1953 50.5329 53.1958 49.9105 53.4537C49.6089 53.5787 49.3358 53.7608 49.1075 53.9877L49.0912 54.004C48.8864 54.2087 48.7186 54.4473 48.5952 54.7092H44.5528V51.3394L42.2837 52.542V55.8384C42.2837 56.1509 42.4114 56.4335 42.6166 56.6387C42.7213 56.7439 42.8459 56.8273 42.983 56.8842C43.1201 56.9411 43.2671 56.9703 43.4155 56.9702H48.6305C48.9063 57.5012 49.3605 57.9179 49.9132 58.1469C50.5274 58.401 51.2204 58.4024 51.8359 58.1537L51.8549 58.1469C52.8047 57.7529 53.4243 56.8262 53.4243 55.799C53.4243 54.7717 52.8034 53.8464 51.8549 53.4523ZM57.5564 49.9249C57.2996 49.3053 57.3009 48.6015 57.5577 47.9805C57.7982 47.403 58.2494 46.9343 58.8133 46.6652V42.6242H56.4911V40.355H59.9424C60.2549 40.355 60.5375 40.4814 60.7427 40.6866C60.848 40.7915 60.9315 40.9163 60.9884 41.0536C61.0453 41.191 61.0745 41.3382 61.0743 41.4869V46.7019C61.6042 46.975 62.0227 47.4343 62.251 47.9846C62.5051 48.5988 62.5064 49.2918 62.2578 49.9073L62.251 49.9263C61.8569 50.8747 60.9316 51.4957 59.9044 51.4957C58.8758 51.4957 57.9504 50.8734 57.5564 49.9249ZM64.7538 36.9581H56.4911L56.4897 34.6944H64.7538C65.0256 34.1468 65.4876 33.7147 66.0542 33.4796C66.6684 33.2269 67.3627 33.2228 67.9782 33.4728L67.9973 33.4796C68.4617 33.6716 68.8587 33.9971 69.138 34.4148C69.4174 34.8325 69.5666 35.3237 69.5667 35.8262C69.5667 36.8535 68.9457 37.7815 67.9959 38.1728C67.3811 38.4271 66.6911 38.4295 66.0746 38.1796L66.0556 38.1728C65.489 37.9386 65.0266 37.5071 64.7538 36.9581ZM66.9048 30.762H56.4897V28.4983H65.7757V21.1025C65.2824 20.8185 64.9047 20.3932 64.6859 19.866C64.4291 19.2442 64.4291 18.546 64.6859 17.9243C65.0813 16.9745 66.0039 16.3549 67.0325 16.3549C68.0598 16.3549 68.9878 16.9758 69.3791 17.9256C69.6332 18.5384 69.6359 19.2328 69.3873 19.8469L69.3791 19.8673C69.125 20.4788 68.644 20.9666 68.0367 21.2275V29.6302C68.0367 29.9427 67.9089 30.224 67.7051 30.4305C67.4926 30.6424 67.2049 30.7616 66.9048 30.762ZM58.0224 25.2943H56.4884V23.714H56.5006C56.5006 23.4844 56.4775 23.2548 56.434 23.0279H56.8906V19.6839C56.3335 19.4121 55.8919 18.9434 55.6541 18.3713C55.3986 17.7493 55.3986 17.0516 55.6541 16.4296C56.0468 15.4839 56.9694 14.8602 58.0007 14.8602C59.0252 14.8602 59.9438 15.4771 60.3392 16.4133L60.3487 16.4323C60.6055 17.0546 60.6041 17.7503 60.3487 18.374C60.1164 18.9331 59.6931 19.3916 59.1543 19.6676V24.1624C59.1543 24.475 59.0266 24.7576 58.8214 24.9628C58.7167 25.068 58.5922 25.1515 58.4551 25.2084C58.318 25.2654 58.1709 25.2945 58.0224 25.2943ZM18.4914 13.0123C19.0689 12.7718 19.5377 12.3207 19.8067 11.7554H23.8477V15.7502L26.1169 14.5477V10.6276C26.1169 10.3151 25.9905 10.0325 25.7854 9.82729C25.6804 9.72199 25.5557 9.63848 25.4183 9.58158C25.281 9.52469 25.1337 9.49551 24.985 9.49574H19.7714C19.4802 8.93465 18.9901 8.50239 18.397 8.28351C17.804 8.06463 17.1506 8.07488 16.5647 8.31224L16.5456 8.31904C15.5972 8.71308 14.9763 9.63841 14.9763 10.6657C14.9763 11.0067 15.0455 11.3355 15.1706 11.6358C15.7046 12.9239 17.1856 13.5531 18.4914 13.0123ZM29.5139 5.81616V12.7473L31.7776 11.5475V5.81616C32.3252 5.54576 32.7586 5.0797 32.9923 4.51445C33.2464 3.90028 33.2491 3.2073 32.9991 2.59177L32.9923 2.57139C32.8 2.10731 32.4745 1.71066 32.0568 1.43156C31.6391 1.15247 31.1481 1.00345 30.6457 1.00335C29.6185 1.00335 28.6918 1.62432 28.2977 2.57275C28.0449 3.18824 28.0424 3.87816 28.291 4.49542L28.2991 4.51445C28.5315 5.07562 28.9676 5.54712 29.5139 5.81616ZM35.7099 3.66521C35.7099 4.8555 35.4599 7.80814 35.3987 10.4999C35.8498 10.5733 36.2792 10.7241 36.6638 10.9469L37.9736 11.6426V4.79436H45.3695C45.4062 4.85958 45.4469 4.92208 45.489 4.98323C45.7703 5.38543 46.1508 5.69523 46.6073 5.8841C47.2256 6.13955 47.9294 6.14091 48.5477 5.8841C49.1727 5.62321 49.6646 5.13405 49.9241 4.50765C50.0478 4.20736 50.1171 3.8799 50.1171 3.53748C50.117 3.03461 49.9677 2.54306 49.688 2.12509C49.4084 1.70712 49.0111 1.38151 48.5463 1.18951C47.9314 0.935949 47.2416 0.93351 46.625 1.18271L46.606 1.19087C46.2973 1.31795 46.017 1.50499 45.7812 1.74117C45.6372 1.8852 45.5094 2.0469 45.4034 2.22354C45.3437 2.32273 45.2907 2.426 45.2445 2.53334H36.8418C36.5292 2.53334 36.2466 2.65971 36.0414 2.86489C35.8293 3.07722 35.7101 3.36505 35.7099 3.66521ZM41.1776 12.5476V13.3397L43.4441 14.5409V13.6794H46.788C47.0598 14.2365 47.5286 14.6781 48.102 14.9146C48.7202 15.1714 49.4227 15.1714 50.041 14.9146C50.5057 14.7229 50.9031 14.3976 51.1828 13.9799C51.4624 13.5621 51.6117 13.0707 51.6117 12.5679C51.6117 11.5448 50.9948 10.6262 50.0586 10.2308L50.0396 10.2213C49.4176 9.96588 48.7199 9.96588 48.0979 10.2213C47.5393 10.4544 47.0812 10.8775 46.8043 11.4157H42.3095C41.997 11.4157 41.7144 11.5434 41.5092 11.7472C41.4039 11.8522 41.3204 11.9769 41.2635 12.1143C41.2066 12.2516 41.1774 12.3989 41.1776 12.5476ZM12.0182 16.4296C12.275 17.0506 12.2736 17.7544 12.0168 18.374C11.7763 18.9529 11.3252 19.4216 10.7613 19.6893V23.7303H13.0848V26.0009H9.63216C9.31965 26.0009 9.03702 25.8731 8.83184 25.668C8.72667 25.5632 8.64324 25.4387 8.58634 25.3016C8.52944 25.1645 8.5002 25.0175 8.5003 24.869V19.654C7.97038 19.3809 7.55187 18.9216 7.3236 18.3713C7.06936 17.7561 7.06692 17.0656 7.3168 16.4486L7.3236 16.4282C7.51607 15.9643 7.84168 15.5677 8.25932 15.2887C8.67696 15.0096 9.16791 14.8605 9.67021 14.8602C10.6988 14.8602 11.6241 15.4812 12.0182 16.4296ZM4.82072 29.3978H13.0848V31.6602H4.82072C4.54808 32.2096 4.08565 32.6416 3.51901 32.8763C2.90365 33.1299 2.21346 33.1323 1.59633 32.8831L1.57595 32.8763C1.11215 32.6836 0.715757 32.3579 0.436719 31.9404C0.15768 31.5228 0.00847998 31.0319 0.00791684 30.5297C0.00791684 29.5024 0.62888 28.573 1.57731 28.1817C2.19148 27.9276 2.88446 27.9263 3.49998 28.1749L3.51901 28.1831C4.08426 28.4168 4.55032 28.8516 4.82072 29.3978ZM2.66977 35.5939H13.0862V37.8576H3.79892V45.2535C4.28944 45.5334 4.67261 45.9668 4.88866 46.4899C5.14547 47.1095 5.14547 47.812 4.88866 48.4316C4.49325 49.3801 3.572 50.001 2.54204 50.001C2.12632 50.0006 1.71704 49.8982 1.35009 49.7028C0.983138 49.5074 0.669713 49.225 0.437287 48.8803C0.20486 48.5357 0.0605274 48.1392 0.0169395 47.7258C-0.0266483 47.3124 0.0318393 46.8945 0.187276 46.509L0.195429 46.4886C0.45088 45.8731 0.929171 45.3907 1.5379 45.1271V36.7257C1.5379 36.4132 1.66563 36.1306 1.86945 35.9254C1.97448 35.8202 2.09924 35.7368 2.23657 35.6799C2.37391 35.623 2.52112 35.5938 2.66977 35.5939ZM11.5521 41.0602H13.0862V42.7533H13.0753C13.0753 42.9449 13.0903 43.1365 13.1215 43.3267H12.684V46.6707C13.2424 46.9451 13.6813 47.4085 13.9205 47.9846C14.1759 48.6056 14.1759 49.304 13.9205 49.9249C13.5278 50.8707 12.6052 51.4957 11.5739 51.4957C10.5493 51.4957 9.63081 50.8775 9.2354 49.9412L9.22725 49.9236C8.98334 49.3331 8.97064 48.6723 9.1917 48.0729C9.41275 47.4734 9.85135 46.9791 10.4203 46.6883V42.1921C10.4203 41.881 10.548 41.5983 10.7518 41.3932C10.8568 41.2878 10.9815 41.2041 11.1188 41.147C11.2561 41.0899 11.4034 41.0604 11.5521 41.0602ZM38.8867 60.6485V54.3423L36.6515 55.5272L36.6244 55.5421V60.6485C36.0756 60.9219 35.6438 61.3841 35.4082 61.9502C35.1555 62.5657 35.1514 63.2587 35.4015 63.8742L35.4082 63.8932C35.8023 64.843 36.7276 65.4626 37.7562 65.4626C38.7835 65.4626 39.7101 64.8417 40.1028 63.8919C40.3569 63.2777 40.3583 62.5861 40.1096 61.9705L40.1028 61.9515C39.8674 61.385 39.4356 60.9224 38.8867 60.6485ZM32.6907 62.8008V55.4022L30.427 54.2024V61.6716H23.0311C22.7513 61.1809 22.3164 60.797 21.7946 60.5805C21.1725 60.3248 20.4746 60.3253 19.8529 60.5819C18.9045 60.9773 18.2849 61.8985 18.2849 62.9285C18.2849 63.9544 18.9058 64.8838 19.8543 65.2751C20.4671 65.5292 21.1601 65.5319 21.777 65.2819L21.796 65.2751C22.4101 65.021 22.8939 64.54 23.1575 63.9326H31.5588C31.8713 63.9326 32.154 63.8049 32.3591 63.5997C32.4644 63.495 32.5479 63.3705 32.6048 63.2334C32.6617 63.0963 32.6909 62.9492 32.6907 62.8008ZM27.2243 53.9184V52.5053L24.9579 51.3041V52.7865H21.6139C21.3435 52.2294 20.872 51.7865 20.3 51.55C19.6784 51.2946 18.9812 51.2946 18.3596 51.55C17.8949 51.7418 17.4976 52.0672 17.218 52.4849C16.9384 52.9026 16.789 53.394 16.7889 53.8967C16.7889 54.9212 17.4071 55.8397 18.3433 56.2351L18.361 56.2433C18.9819 56.5001 19.6817 56.5001 20.3027 56.2433C20.6043 56.1183 20.8774 55.9362 21.1071 55.712L21.1288 55.693C21.2484 55.572 21.3598 55.4362 21.459 55.2853C21.5093 55.2092 21.5555 55.1304 21.5976 55.0503H26.0924C26.4036 55.0503 26.6876 54.9225 26.8914 54.7174C26.9969 54.6128 27.0806 54.4883 27.1377 54.3512C27.1949 54.214 27.2243 54.067 27.2243 53.9184ZM21.9563 38.393V28.073H25.2092L27.2284 31.8735H27.6061V28.073H30.9148V38.393H27.6482L25.6576 34.322H25.2663V38.393H21.9563ZM32.4094 38.393V28.073H39.2998V30.5922H35.718V32.8682H38.4438V35.2786H35.718V38.393H32.4094ZM40.486 30.7688V28.073H47.6183V30.7688H45.7635V38.393H42.4549V30.7688H40.486ZM35.5754 15.6157C40.6165 18.3659 45.8029 20.9992 50.8916 23.6774C51.465 23.979 51.7924 24.5646 51.7938 25.172L51.7965 41.2953C51.7965 41.9883 51.3821 42.5834 50.7856 42.8457L35.5754 50.8516C35.3326 50.9795 35.0624 51.0463 34.788 51.0463C34.5136 51.0463 34.2433 50.9795 34.0005 50.8516C28.9595 48.1015 23.773 45.4681 18.6844 42.79C18.1096 42.4883 17.7821 41.9013 17.7821 41.2953L17.7781 25.172C17.7781 24.479 18.1938 23.8839 18.7904 23.6216L34.0005 15.6157C34.5128 15.3467 35.0984 15.3657 35.5754 15.6157Z" fill="url(#paint0_linear_600_825)"/>
<defs>
<linearGradient id="paint0_linear_600_825" x1="0.00292977" y1="38.4318" x2="69.701" y2="35.4868" gradientUnits="userSpaceOnUse">
<stop stop-color="#147DFF"/>
<stop offset="1" stop-color="#15C0E9"/>
</linearGradient>
</defs>
</svg>
