<svg width="1440" height="111" viewBox="0 0 1440 111" fill="none" xmlns="http://www.w3.org/2000/svg">
<g opacity="0.3">
<path opacity="0.5" d="M1464 0L1439.6 13.6403C1415.2 27.1528 1366.4 54.625 1317.6 64.7514C1268.8 75.0694 1220 68.0417 1171.2 57.9153C1122.4 47.5972 1073.6 34.1806 1024.8 27.2486C976 20.4444 927.2 20.4444 878.4 25.5556C829.6 30.6667 780.8 40.8889 732 40.8889C683.2 40.8889 634.4 30.6667 585.6 27.2486C536.8 23.9583 488 27.1528 439.2 37.4708C390.4 47.5972 341.6 64.8472 292.8 63.0264C244 61.3333 195.2 40.8889 146.4 37.4708C97.6 34.1806 48.8 47.5972 24.4 54.5292L0 61.3333V92H24.4C48.8 92 97.6 92 146.4 92C195.2 92 244 92 292.8 92C341.6 92 390.4 92 439.2 92C488 92 536.8 92 585.6 92C634.4 92 683.2 92 732 92C780.8 92 829.6 92 878.4 92C927.2 92 976 92 1024.8 92C1073.6 92 1122.4 92 1171.2 92C1220 92 1268.8 92 1317.6 92C1366.4 92 1415.2 92 1439.6 92H1464V0Z" fill="#5DB5F9"/>
<path d="M1464 33L1439.6 44.5646C1415.2 56.0208 1366.4 79.3125 1317.6 87.8979C1268.8 96.6458 1220 90.6875 1171.2 82.1021C1122.4 73.3542 1073.6 61.9792 1024.8 56.1021C976 50.3333 927.2 50.3333 878.4 54.6667C829.6 59 780.8 67.6667 732 67.6667C683.2 67.6667 634.4 59 585.6 56.1021C536.8 53.3125 488 56.0208 439.2 64.7688C390.4 73.3542 341.6 87.9792 292.8 86.4354C244 85 195.2 67.6667 146.4 64.7688C97.6 61.9792 48.8 73.3542 24.4 79.2313L0 85V111H24.4C48.8 111 97.6 111 146.4 111C195.2 111 244 111 292.8 111C341.6 111 390.4 111 439.2 111C488 111 536.8 111 585.6 111C634.4 111 683.2 111 732 111C780.8 111 829.6 111 878.4 111C927.2 111 976 111 1024.8 111C1073.6 111 1122.4 111 1171.2 111C1220 111 1268.8 111 1317.6 111C1366.4 111 1415.2 111 1439.6 111H1464V33Z" fill="#5DB5F9"/>
</g>
</svg>
