<svg width="146" height="164" viewBox="0 0 146 164" fill="none" xmlns="http://www.w3.org/2000/svg">
<g opacity="0.1">
<path fill-rule="evenodd" clip-rule="evenodd" d="M54.6368 45.7238L125.103 26.46L123.541 20.7477L51.2007 40.524L9.96362 92.5974L42.7799 145.248L47.8055 142.115L17.1952 93.0043L54.6368 45.7238Z" fill="#FFC000"/>
<path d="M60.15 140.972C59.9561 152.417 50.5207 161.538 39.0753 161.344C27.6299 161.151 18.5088 151.715 18.7027 140.27C18.8965 128.824 28.332 119.703 39.7774 119.897C51.2227 120.091 60.3438 129.527 60.15 140.972Z" fill="#F6C142"/>
<path d="M73.5963 46.4355C73.4024 57.8808 63.9669 67.002 52.5216 66.8081C41.0762 66.6142 31.9551 57.1788 32.149 45.7334C32.3428 34.2881 41.7783 25.1669 53.2236 25.3608C64.669 25.5547 73.7901 34.9901 73.5963 46.4355Z" fill="#F6C142"/>
<path d="M145.05 23.9548C144.856 35.4001 135.421 44.5213 123.976 44.3274C112.53 44.1335 103.409 34.6981 103.603 23.2527C103.797 11.8073 113.232 2.68622 124.678 2.88008C136.123 3.07395 145.244 12.5094 145.05 23.9548Z" fill="#F6C142"/>
<path d="M31.3457 93.1019C31.2072 101.277 24.4676 107.792 16.2923 107.654C8.11709 107.515 1.602 100.776 1.74047 92.6005C1.87895 84.4252 8.61856 77.9101 16.7938 78.0486C24.9691 78.1871 31.4842 84.9267 31.3457 93.1019Z" fill="#F6C142"/>
</g>
</svg>
