<svg width="305" height="404" viewBox="0 0 305 404" fill="none" xmlns="http://www.w3.org/2000/svg">
<g opacity="0.3">
<path d="M270.944 85.1253C256.526 103.303 230.102 106.351 211.925 91.9331C193.747 77.5153 190.699 51.0914 205.117 32.9136C219.535 14.7359 245.959 11.688 264.136 26.1058C282.314 40.5237 285.362 66.9476 270.944 85.1253Z" fill="#5DB5F9"/>
<path fill-rule="evenodd" clip-rule="evenodd" d="M233.33 55.2905L242.734 62.7493L135.876 197.474L135.551 340.668L123.548 340.641L123.883 193.279L233.33 55.2905Z" fill="#5DB5F9"/>
<path d="M166.52 216.78C152.102 234.958 125.678 238.006 107.501 223.588C89.3231 209.17 86.2751 182.746 100.693 164.568C115.111 146.39 141.535 143.343 159.712 157.76C177.89 172.178 180.938 198.602 166.52 216.78Z" fill="#5DB5F9"/>
<path d="M170.892 365.786C154.414 386.561 124.216 390.044 103.441 373.567C82.6667 357.089 79.1833 326.89 95.6608 306.116C112.138 285.341 142.337 281.858 163.112 298.335C183.886 314.813 187.37 345.012 170.892 365.786Z" fill="#5DB5F9"/>
</g>
</svg>
