<svg width="85" height="123" viewBox="0 0 85 123" fill="none" xmlns="http://www.w3.org/2000/svg">
<path fill-rule="evenodd" clip-rule="evenodd" d="M66.6161 59.3271L33.4023 37.8739L36.8724 32.3391L74.7564 56.8089L51.025 111.866L45.1035 109.237L66.6161 59.3271Z" fill="#5DB5F9"/>
<path d="M46.1257 22.7959C46.1257 35.094 35.8001 45.0635 23.0629 45.0635C10.3256 45.0635 0 35.094 0 22.7959C0 10.4979 10.3256 0.52832 23.0629 0.52832C35.8001 0.52832 46.1257 10.4979 46.1257 22.7959Z" fill="#5DB5F9"/>
<path d="M65.2119 107.095C65.2119 115.879 57.7348 123 48.5112 123C39.2877 123 31.8105 115.879 31.8105 107.095C31.8105 98.3103 39.2877 91.1892 48.5112 91.1892C57.7348 91.1892 65.2119 98.3103 65.2119 107.095Z" fill="#5DB5F9"/>
<path d="M84.2983 58.5831C84.2983 66.0498 78.6014 72.1027 71.5739 72.1027C64.5465 72.1027 58.8496 66.0498 58.8496 58.5831C58.8496 51.1164 64.5465 45.0635 71.5739 45.0635C78.6014 45.0635 84.2983 51.1164 84.2983 58.5831Z" fill="#5DB5F9"/>
</svg>
